<defs>
<font horiz-adv-x="441" ><font-face
    font-family="lacuna-italic"
    units-per-em="1000"
    panose-1="0 0 4 0 0 0 0 0 0 0"
    ascent="1000"
    descent="-296"
    alphabetic="0" />
<missing-glyph horiz-adv-x="500" d="M63 0V800H438V0H63ZM125 63H375V738H125V63Z" />
<glyph unicode=" " glyph-name="space" horiz-adv-x="265" />
<glyph unicode="!" glyph-name="exclam" horiz-adv-x="444" d="M329 780L237 212H166L229 780H329ZM245 51Q241 24 221 5T175 -14Q147 -14 130 5T116 51Q119 78 139 96T186 115Q213 115 230 96T245 51Z" />
<glyph unicode="&quot;" glyph-name="quotedbl" horiz-adv-x="332" d="M287 818L265 595H214L195 818H287ZM97 818L75 595H24L5 818H97Z" />
<glyph unicode="#" glyph-name="numbersign" horiz-adv-x="704" d="M644 496H533L513 357H617V293H504L463 0H394L435 293H230L189 0H120L161 293H60V357H170L190 496H86V560H199L240 854H309L268 560H473L514 854H583L542 560H644V496ZM464 496H259L239 357H444L464
496Z" />
<glyph unicode="$" glyph-name="dollar" horiz-adv-x="678" d="M645 726L607 658Q518 713 426 713Q367 713 324 690Q270 661 264 603Q259 554 316 504Q337 486 421 432Q597 318 597 206Q597 100 510 42Q435 -8 325 -8Q255 -8 179 21Q122 42 86 69L135 132Q222
68 326 68Q485 68 501 187Q502 195 502 204Q502 257 452 303Q429 324 351 373Q266 427 232 460Q160 529 167 603Q176 697 260 747Q329 788 427 788Q529 788 645 726ZM445 906L425 751L357 749L378 906H445ZM334 27L315 -119H247L266 25L334 27Z" />
<glyph unicode="%" glyph-name="percent" horiz-adv-x="852" d="M226 484Q156 484 108 529T60 641Q60 722 120 782T262 842Q332 842 378 799T424 688Q424 606 366 545T226 484ZM775 846L140 -20H61L696 846H775ZM594 -2Q525 -2 477 42T428 154Q428 236 488 296T631
356Q700 356 746 313T792 202Q792 120 734 59T594 -2ZM353 682Q353 725 327 750T257 776Q203 776 168 738T132 645Q132 602 158 577T226 551Q281 551 317 589T353 682ZM721 196Q721 238 695 264T625 290Q571 290 536 251T500 158Q500 116 526 91T595 65Q649 65
685 103T721 196Z" />
<glyph unicode="&amp;" glyph-name="ampersand" horiz-adv-x="896" d="M686 76Q631 17 577 -9Q510 -40 413 -40Q296 -40 201 43Q100 131 100 253Q100 380 184 469T391 559Q452 559 500 539L596 669H684L250 105Q269 75 320 53T423 31Q530 31 608 107Q719 217 719
382Q719 427 709 466H649L657 530H933L925 466H790Q798 427 798 384Q798 297 767 213T686 76ZM457 480Q434 488 404 488Q295 488 231 402Q180 333 180 257Q180 204 204 159L457 480Z" />
<glyph unicode="&apos;" glyph-name="quotesingle" horiz-adv-x="272" d="M212 818L190 595H139L120 818H212Z" />
<glyph unicode="(" glyph-name="parenleft" horiz-adv-x="339" d="M339 802Q266 689 237 626Q174 489 150 314Q141 251 141 184Q141 -11 206 -186L142 -218Q60 -22 60 200Q60 267 68 331Q91 504 165 653Q206 735 281 839L339 802Z" />
<glyph unicode=")" glyph-name="parenright" horiz-adv-x="399" d="M331 289Q308 117 234 -32Q194 -115 118 -218L60 -181Q133 -69 163 -5Q225 131 249 307Q258 370 258 437Q258 632 193 807L257 839Q339 643 339 420Q339 354 331 289Z" />
<glyph unicode="*" glyph-name="asterisk" horiz-adv-x="553" d="M458 702L335 630L437 562L406 519L300 581L279 451H224L239 581L115 522L95 567L215 634L113 702L145 746L253 683L274 817H326L314 683L438 749L458 702Z" />
<glyph unicode="+" glyph-name="plus" horiz-adv-x="503" d="M443 299L434 235H281L260 82H192L213 235H60L69 299H222L243 452H311L290 299H443Z" />
<glyph unicode="," glyph-name="comma" horiz-adv-x="318" d="M223 49Q223 -32 123 -114L101 -94Q115 -83 133 -55T151 -11Q151 -2 143 -1Q92 6 95 59Q97 85 116 101T162 118Q188 118 205 98T223 49Z" />
<glyph unicode="-" glyph-name="hyphen" horiz-adv-x="337" d="M277 309L268 245H60L69 309H277Z" />
<glyph unicode="." glyph-name="period" horiz-adv-x="250" d="M189 49Q185 23 166 5T120 -13Q93 -13 75 7T61 53Q64 80 83 98T130 116Q157 116 175 96T189 49Z" />
<glyph unicode="/" glyph-name="slash" horiz-adv-x="533" d="M528 854L139 0H60L449 854H528Z" />
<glyph unicode="0" glyph-name="zero" horiz-adv-x="647" d="M583 281Q563 130 471 51Q394 -14 294 -14Q207 -14 145 39Q70 104 70 225Q70 252 74 281Q94 432 187 511Q264 576 364 576Q454 576 515 524Q587 461 587 340Q587 312 583 281ZM497 281Q501 308 501
333Q501 505 358 505Q263 505 210 425Q172 368 160 281Q156 253 156 226Q156 57 298 57Q393 57 447 137Q485 194 497 281Z" />
<glyph unicode="1" glyph-name="one" horiz-adv-x="481" d="M421 72L411 0H70L80 72H203L257 483L135 439L112 497L277 570H359L292 72H421Z" />
<glyph unicode="2" glyph-name="two" horiz-adv-x="597" d="M535 394Q522 293 371 192L193 72H504L494 0H70L81 78L312 239Q377 284 403 310Q445 352 451 396Q452 406 452 415Q452 506 342 506Q258 506 181 428L137 477Q230 577 347 577Q438 577 489 533Q537 491
537 421Q537 408 535 394Z" />
<glyph unicode="3" glyph-name="three" horiz-adv-x="627" d="M566 385Q551 241 428 197Q468 178 494 138Q524 91 524 28Q524 -79 460 -151Q393 -227 287 -227Q210 -227 145 -190Q94 -161 70 -124L125 -75Q146 -105 187 -129Q234 -156 277 -156Q335 -156 378 -119Q426
-79 435 -7Q438 11 438 27Q438 156 312 159L256 161L266 236H317Q389 236 436 282T483 400Q483 448 451 477T368 506Q329 506 283 483Q244 463 218 437L171 484Q259 577 371 577Q467 577 522 519Q574 465 566 385Z" />
<glyph unicode="4" glyph-name="four" horiz-adv-x="622" d="M562 73L552 0H461L426 -232H342L373 0H70L77 50L401 562H493L189 73H385L418 310H506L471 73H562Z" />
<glyph unicode="5" glyph-name="five" horiz-adv-x="588" d="M528 564L518 490H274L242 266Q287 288 330 288Q421 288 468 222Q507 167 507 81Q507 60 504 38Q490 -73 437 -142Q372 -227 262 -227Q144 -227 70 -124L127 -80Q185 -156 259 -156Q327 -156 368 -102Q405
-54 416 29Q420 56 420 80Q420 216 309 216Q257 216 208 184H144L197 564H528Z" />
<glyph unicode="6" glyph-name="six" horiz-adv-x="594" d="M526 237Q512 -8 289 -8Q215 -8 157 37Q70 105 70 254Q70 287 74 324Q99 525 192 642Q280 753 397 753Q481 753 534 697L492 645Q458 685 389 685Q320 685 255 611Q184 531 166 412Q223 477 324 477Q396
477 453 430Q533 365 526 237ZM438 242Q438 306 412 349Q379 402 312 403Q234 405 189 351Q148 302 148 223Q148 154 185 110T292 66Q366 66 404 120Q438 167 438 242Z" />
<glyph unicode="7" glyph-name="seven" horiz-adv-x="560" d="M500 558L493 507L163 -224H70L391 486H107L116 558H500Z" />
<glyph unicode="8" glyph-name="eight" horiz-adv-x="603" d="M542 569Q538 501 496 453Q468 420 438 410Q480 385 507 336Q538 279 535 214Q523 -7 291 -7Q201 -7 137 50Q67 113 70 210Q75 351 206 415Q134 475 141 567Q146 635 195 687Q256 752 359 752Q433
752 486 709Q548 658 542 569ZM464 564Q468 624 430 656Q398 683 350 683Q301 683 265 657Q222 627 218 573Q213 512 255 475Q290 446 331 446Q378 446 412 468Q459 498 464 564ZM448 205Q454 288 410 335Q372 375 312 375Q255 375 211 342Q155 299 153 215Q150
132 209 92Q249 66 298 66Q437 66 448 205Z" />
<glyph unicode="9" glyph-name="nine" horiz-adv-x="584" d="M521 252Q501 32 428 -90Q346 -229 203 -229Q137 -229 83 -192L120 -136Q156 -161 208 -161Q292 -161 352 -70Q405 12 424 142Q375 86 282 86Q208 86 148 132Q63 196 71 326Q78 458 156 523Q221 577
317 577Q408 577 463 512Q524 441 524 310Q524 282 521 252ZM443 320Q444 334 444 346Q444 418 409 462T312 506Q238 506 197 454Q161 409 154 332Q148 266 181 216Q217 161 283 161Q429 161 443 320Z" />
<glyph unicode=":" glyph-name="colon" horiz-adv-x="310" d="M249 475Q246 448 226 430T180 412Q153 412 135 432T121 479Q124 506 143 523T190 541Q217 541 235 521T249 475ZM189 49Q185 23 166 5T120 -13Q93 -13 75 7T61 53Q64 80 83 98T130 116Q157 116 175
96T189 49Z" />
<glyph unicode=";" glyph-name="semicolon" horiz-adv-x="306" d="M245 475Q241 448 222 430T175 412Q149 412 131 432T116 479Q120 506 139 523T186 541Q213 541 231 521T245 475ZM188 49Q182 -27 88 -114L66 -94Q80 -83 98 -55T116 -11Q116 -2 108 -1Q57 6 60
59Q62 85 82 101T129 118Q155 118 172 97T188 49Z" />
<glyph unicode="&lt;" glyph-name="less" horiz-adv-x="664" d="M571 359L559 275H131L239 25L174 -10L25 310L28 330L255 642L312 603L145 359H571Z" />
<glyph unicode="=" glyph-name="equal" horiz-adv-x="612" d="M507 451L498 387H125L134 451H507ZM487 300L478 236H105L114 300H487Z" />
<glyph unicode="&gt;" glyph-name="greater" horiz-adv-x="666" d="M606 330L604 310L373 -10L315 29L484 275H60L71 359H498L399 601L458 633L606 330Z" />
<glyph unicode="?" glyph-name="question" horiz-adv-x="510" d="M498 595Q489 532 443 489Q395 453 347 416Q267 353 255 269L245 194H162L172 286Q183 386 290 468Q329 496 369 523Q408 556 412 602Q417 658 377 686Q344 709 288 709Q215 709 134 659L100 724Q192
787 293 787Q387 787 443 745T500 624Q500 610 498 595ZM251 49Q247 23 228 5T181 -13Q154 -13 137 7T122 53Q126 80 145 98T192 116Q219 116 236 96T251 49Z" />
<glyph unicode="@" glyph-name="at" horiz-adv-x="1014" d="M954 262Q944 193 914 122Q880 44 836 0H616Q603 19 606 47Q548 -9 476 -9Q403 -9 355 47Q304 106 304 209Q304 240 309 274Q330 414 412 476Q468 519 540 519Q611 519 659 480L666 510H747L693 114Q689
89 695 67H805Q865 158 879 262Q884 303 884 342Q884 489 808 575Q728 666 579 666Q410 666 299 551Q193 441 169 262Q163 221 163 183Q163 35 240 -51Q322 -142 470 -142Q515 -142 552 -137L550 -205Q489 -212 461 -212Q289 -212 187 -104T85 180Q85 220 91 262Q119
474 248 603Q383 736 585 736Q758 736 860 628Q959 521 959 345Q959 305 954 262ZM647 398Q598 446 538 446Q491 446 455 408Q410 359 395 256Q392 230 392 207Q392 138 420 100T489 62Q556 62 613 152L647 398Z" />
<glyph unicode="A" glyph-name="A" horiz-adv-x="645" d="M605 0H518L494 246H210L75 0H-20L426 785H513L605 0ZM485 316L450 681H443L420 634L246 316H485Z" />
<glyph unicode="B" glyph-name="B" horiz-adv-x="678" d="M668 582Q663 516 618 464Q586 429 550 412V406Q592 388 620 336T644 224Q625 0 353 0H100L213 780H427Q552 780 615 725Q674 673 668 582ZM581 594Q581 709 426 709H293L253 438H381Q581 438 581 594ZM557
215Q558 228 558 240Q558 372 381 372H245L201 71H344Q542 71 557 215Z" />
<glyph unicode="C" glyph-name="C" horiz-adv-x="626" d="M686 642L617 609Q565 713 456 713Q349 713 278 617Q215 530 197 389Q192 350 192 314Q192 202 237 136Q285 67 370 67Q485 67 559 176L618 136Q524 -7 363 -7Q257 -7 182 69Q95 157 95 313Q95 349 100
389Q126 589 239 698Q333 788 450 788Q613 788 686 642Z" />
<glyph unicode="D" glyph-name="D" horiz-adv-x="715" d="M708 414Q688 202 583 97Q487 0 326 0H100L213 780H393Q530 780 615 704Q710 620 710 463Q710 439 708 414ZM618 413Q621 442 621 468Q621 709 385 709H294L201 71L309 70Q468 70 543 172Q601 252 618 413Z" />
<glyph unicode="E" glyph-name="E" horiz-adv-x="617" d="M652 780L642 709H292L253 436H566L556 365H243L201 71H572L562 0H100L212 780H652Z" />
<glyph unicode="F" glyph-name="F" horiz-adv-x="586" d="M661 780L651 709H293L254 436H571L560 365H244L192 0H100L213 780H661Z" />
<glyph unicode="G" glyph-name="G" horiz-adv-x="751" d="M703 402L649 0H585L598 97Q550 46 509 24Q451 -7 366 -7Q254 -7 180 70Q95 158 95 315Q95 350 100 389Q124 594 244 700Q344 788 479 788Q645 788 718 642L650 610Q603 713 471 713Q362 713 286 624T191
387Q187 351 187 317Q187 206 232 140Q283 68 379 68Q471 68 532 127Q588 181 599 264L607 330H420L430 402H703Z" />
<glyph unicode="H" glyph-name="H" horiz-adv-x="745" d="M736 780L624 0H535L587 363H241L189 0H100L211 780H300L251 433H596L646 780H736Z" />
<glyph unicode="I" glyph-name="I" horiz-adv-x="367" d="M387 780L379 724H324L228 56H288L280 0H77L84 56H138L235 724H175L183 780H387Z" />
<glyph unicode="J" glyph-name="J" horiz-adv-x="340" d="M335 780L230 56Q215 -43 164 -108Q108 -178 18 -192L10 -118Q116 -102 139 54L244 780H335Z" />
<glyph unicode="K" glyph-name="K" horiz-adv-x="662" d="M712 780L409 466L644 0H554L352 408L234 283L190 0H100L214 780H304L250 401L611 780H712Z" />
<glyph unicode="L" glyph-name="L" horiz-adv-x="544" d="M539 70L529 0H100L213 780H304L201 70H539Z" />
<glyph unicode="M" glyph-name="M" horiz-adv-x="863" d="M854 780L744 -1L660 0L761 691H755L451 -5H395L290 698H284L184 0H100L213 780H344L438 128H444L716 780H854Z" />
<glyph unicode="N" glyph-name="N" horiz-adv-x="766" d="M757 780L644 0H536L290 689H282L181 0H100L212 780H336L571 109H578L674 780H757Z" />
<glyph unicode="O" glyph-name="O" horiz-adv-x="767" d="M757 390Q730 192 611 85Q510 -7 378 -7Q263 -7 185 66Q95 151 95 308Q95 347 101 390Q128 589 247 696Q348 788 481 788Q594 788 672 711Q762 622 762 467Q762 430 757 390ZM672 460Q672 570 625 638Q572
713 473 713Q335 713 254 577Q186 463 186 314Q186 203 233 138Q285 67 386 67Q523 67 603 201Q672 314 672 460Z" />
<glyph unicode="P" glyph-name="P" horiz-adv-x="640" d="M680 569Q664 337 377 337H240L190 0H100L213 780H414Q552 780 621 720Q686 665 680 569ZM595 576Q595 634 553 669Q505 709 412 709H294L250 408H385Q477 408 532 445Q595 489 595 576Z" />
<glyph unicode="Q" glyph-name="Q" horiz-adv-x="767" d="M757 390Q733 214 634 108L733 -2L677 -52L578 59Q485 -8 379 -8Q268 -8 189 66Q95 154 95 311Q95 349 101 390Q128 589 247 696Q348 788 480 788Q593 788 672 711Q762 622 762 467Q762 430 757 390ZM671
458Q671 569 623 637Q570 714 471 714Q332 714 252 577Q185 462 185 313Q185 201 232 137Q283 66 384 66Q464 66 528 115L429 225L484 275L580 168Q671 286 671 458Z" />
<glyph unicode="R" glyph-name="R" horiz-adv-x="655" d="M485 357L623 0H537L402 348H242L189 0H100L213 780H445Q552 780 615 723Q675 669 675 585Q675 496 624 433T485 357ZM587 581Q587 636 553 669Q514 708 438 708H292L252 421H424Q501 421 544 463T587 581Z" />
<glyph unicode="S" glyph-name="S" horiz-adv-x="588" d="M598 726L561 658Q472 713 380 713Q321 713 278 690Q223 661 218 603Q213 554 270 504Q291 486 375 432Q551 318 551 206Q551 100 464 42Q389 -8 279 -8Q209 -8 133 21Q76 42 40 69L89 132Q176 68 280
68Q439 68 455 187Q456 195 456 204Q456 257 406 303Q383 324 305 373Q219 427 185 460Q114 529 121 603Q130 697 214 747Q283 788 381 788Q483 788 598 726Z" />
<glyph unicode="T" glyph-name="T" horiz-adv-x="427" d="M627 780L618 709H390L287 0H195L298 709H75L84 780H627Z" />
<glyph unicode="U" glyph-name="U" horiz-adv-x="733" d="M733 780L660 276Q639 129 548 56Q469 -8 354 -8Q259 -8 192 45Q110 111 110 233Q110 261 114 292L186 780H275L205 287Q201 259 201 235Q201 144 253 100Q295 65 358 65Q432 65 485 107Q552 161 569 277L642
780H733Z" />
<glyph unicode="V" glyph-name="V" horiz-adv-x="567" d="M667 756L334 0H231L100 780H185L293 103H301L331 180L594 792L667 756Z" />
<glyph unicode="W" glyph-name="W" horiz-adv-x="885" d="M985 761L711 0H615L533 658H527L507 597L273 0H176L100 780H179L240 114H246L263 170L500 780H590L672 114H678L695 170L910 788L985 761Z" />
<glyph unicode="X" glyph-name="X" horiz-adv-x="586" d="M666 744L388 401L572 0H477L329 330L38 -20L-20 29L294 409L110 780H204L351 481L604 793L666 744Z" />
<glyph unicode="Y" glyph-name="Y" horiz-adv-x="508" d="M658 746L363 317L316 0H226L273 321L80 780H173L331 415H338L590 792L658 746Z" />
<glyph unicode="Z" glyph-name="Z" horiz-adv-x="562" d="M637 780L629 722L129 72H550L540 0H10L18 67L511 708H120L130 780H637Z" />
<glyph unicode="[" glyph-name="bracketleft" horiz-adv-x="414" d="M414 818L405 748H282L163 -129H286L276 -199H60L198 818H414Z" />
<glyph unicode="\" glyph-name="backslash" horiz-adv-x="474" d="M414 0H335L60 854H139L414 0Z" />
<glyph unicode="]" glyph-name="bracketright" horiz-adv-x="474" d="M414 818L276 -199H60L70 -129H192L311 748H189L198 818H414Z" />
<glyph unicode="^" glyph-name="asciicircum" horiz-adv-x="394" d="M281 627H214L156 713L76 627H5L133 773H197L281 627Z" />
<glyph unicode="_" glyph-name="underscore" horiz-adv-x="527" d="M467 0L458 -64H60L69 0H467Z" />
<glyph unicode="`" glyph-name="grave" horiz-adv-x="307" d="M207 621H141L100 775H175L207 621Z" />
<glyph unicode="a" glyph-name="a" horiz-adv-x="569" d="M517 530L461 147Q454 100 454 70Q454 47 463 0H387Q371 27 374 60Q310 -8 222 -8Q148 -8 104 50T60 210Q60 248 66 289Q88 431 170 494Q226 538 300 538Q382 538 428 500L436 530H517ZM416 420Q369 465
298 465Q251 465 214 425Q167 374 152 271Q147 236 147 205Q147 65 234 65Q279 65 324 101Q362 131 379 167L416 420Z" />
<glyph unicode="b" glyph-name="b" horiz-adv-x="523" d="M484 277Q450 -8 234 -8Q166 -8 120 35Q65 87 65 186Q65 214 69 245L152 818H238L187 480Q240 538 319 538Q385 538 428 503Q488 452 488 338Q488 310 484 277ZM393 259Q398 297 398 328Q398 465 309 465Q267
465 226 432Q190 402 170 358L150 220Q148 201 148 184Q148 125 178 93Q204 65 242 65Q294 65 332 105Q379 155 393 259Z" />
<glyph unicode="c" glyph-name="c" horiz-adv-x="438" d="M433 476L379 427Q348 465 293 465Q242 465 206 424Q162 372 151 263Q148 236 148 212Q148 65 256 65Q324 65 370 111L415 57Q337 -8 242 -8Q170 -8 120 43Q60 106 60 220Q60 240 62 262Q75 401 142 473Q203
538 295 538Q374 538 433 476Z" />
<glyph unicode="d" glyph-name="d" horiz-adv-x="564" d="M554 818L461 147Q454 102 454 72Q454 48 464 0H388Q371 27 375 60Q311 -8 222 -8Q148 -8 104 50T60 210Q60 248 66 289Q88 431 170 494Q226 538 300 538Q379 538 425 500L469 818H554ZM414 420Q367 465
298 465Q251 465 214 425Q167 374 152 271Q147 236 147 205Q147 65 234 65Q279 65 324 101Q362 131 379 167L414 420Z" />
<glyph unicode="e" glyph-name="e" horiz-adv-x="501" d="M476 384Q472 320 424 275Q382 237 318 223Q282 215 241 215Q194 215 147 225Q142 65 264 65Q332 65 391 109L430 51Q357 -8 252 -8Q175 -8 122 44Q60 106 60 221Q60 241 62 262Q75 401 142 473Q204 538
300 538Q383 538 431 495T476 384ZM382 377Q383 385 383 392Q383 430 352 450Q328 465 295 465Q180 465 154 289Q177 281 228 281Q257 281 283 285Q371 299 382 377Z" />
<glyph unicode="f" glyph-name="f" horiz-adv-x="306" d="M376 816L366 743Q266 743 255 662L237 530H336L327 463H227L154 -62Q134 -208 -50 -207L-40 -135Q60 -135 71 -53L142 463H70L79 530H152L171 672Q192 817 376 816Z" />
<glyph unicode="g" glyph-name="g" horiz-adv-x="573" d="M444 -35Q430 -136 360 -184Q304 -221 223 -221Q174 -221 124 -198Q87 -180 65 -159L109 -104Q154 -148 222 -148Q344 -148 360 -35L372 50Q312 -9 229 -9Q156 -9 113 50T69 211Q69 248 75 289Q97 431
178 495Q234 539 308 539Q386 539 434 500L441 530H523L444 -35ZM421 421Q374 466 306 466Q259 466 222 425Q176 374 161 271Q156 235 156 204Q156 62 241 62Q287 62 331 100Q365 129 384 167L421 421Z" />
<glyph unicode="h" glyph-name="h" horiz-adv-x="588" d="M264 818L216 476Q283 538 367 538Q430 538 471 505Q523 463 523 375Q523 352 519 327L474 0H389L434 320Q437 348 437 369Q437 465 353 465Q300 465 251 422Q215 390 201 359Q201 360 150 0H65L179 818H264Z" />
<glyph unicode="i" glyph-name="i" horiz-adv-x="263" d="M243 678Q242 656 225 640T186 623Q164 623 150 638T137 675Q138 698 154 713T194 729Q215 729 229 714T243 678ZM209 530L158 169Q155 149 155 133Q155 72 199 65L189 -8Q137 -8 104 30T70 132Q70 149
73 167L124 530H209Z" />
<glyph unicode="j" glyph-name="j" horiz-adv-x="264" d="M254 678Q253 656 236 640T198 623Q176 623 162 638T148 675Q149 698 165 713T205 729Q226 729 241 714T254 678ZM220 530L147 -1Q132 -109 82 -184Q38 -248 -19 -271L-50 -206Q2 -174 27 -125Q49 -80
61 3L136 530H220Z" />
<glyph unicode="k" glyph-name="k" horiz-adv-x="512" d="M532 529L318 340L475 0H391L259 287L179 219L150 0H65L178 818H263L195 328L423 529H532Z" />
<glyph unicode="l" glyph-name="l" horiz-adv-x="262" d="M242 818L153 169Q150 149 150 133Q150 72 194 65L184 -8Q132 -8 99 30T65 132Q65 149 67 167L157 818H242Z" />
<glyph unicode="m" glyph-name="m" horiz-adv-x="885" d="M348 465Q432 465 432 368Q432 352 429 333L384 0H469L518 369Q535 401 567 429Q607 465 647 465Q736 465 736 363Q736 344 733 321L689 0H774L816 320Q820 346 820 369Q820 457 771 501Q731 538 669 538Q576
538 504 463Q460 538 366 538Q321 538 277 516T209 461Q205 507 195 530H124Q134 503 134 457Q134 428 130 396L75 0H159L212 370Q230 406 266 433Q307 465 348 465Z" />
<glyph unicode="n" glyph-name="n" horiz-adv-x="596" d="M528 327L483 0H398L442 320Q446 348 446 369Q446 465 361 465Q308 465 259 422Q223 390 210 359L159 0H75L130 396Q134 428 134 457Q134 503 124 530H195Q205 507 209 461Q276 538 375 538Q439 538 479
505Q531 463 531 375Q531 352 528 327Z" />
<glyph unicode="o" glyph-name="o" horiz-adv-x="520" d="M490 264Q454 -8 243 -8Q161 -8 111 41Q55 96 55 203Q55 232 59 264Q78 404 150 475Q215 538 312 538Q390 538 438 490Q495 434 495 326Q495 297 490 264ZM402 264Q407 301 407 331Q407 465 303 465Q174
465 147 264Q143 228 143 199Q143 65 250 65Q376 65 402 264Z" />
<glyph unicode="p" glyph-name="p" horiz-adv-x="533" d="M144 31L99 -285H15L110 396Q115 428 115 458Q115 503 105 530H176Q186 507 190 461Q254 538 340 538Q406 538 449 502Q508 451 508 337Q508 308 505 276Q484 105 393 35Q336 -8 256 -8Q227 -8 191 5T144
31ZM414 258Q420 297 420 330Q420 465 331 465Q288 465 249 433T189 357L155 112Q166 95 197 80T259 65Q311 65 350 104Q398 154 414 258Z" />
<glyph unicode="q" glyph-name="q" horiz-adv-x="545" d="M315 -285L363 46Q304 -9 221 -9Q148 -9 104 50T60 212Q60 249 66 289Q88 431 169 494Q226 538 300 538Q379 538 425 500L433 530H515L400 -285H315ZM414 420Q367 465 297 465Q250 465 213 425Q167 374
152 271Q147 236 147 205Q147 65 233 65Q280 65 324 100Q360 129 379 165L414 420Z" />
<glyph unicode="r" glyph-name="r" horiz-adv-x="389" d="M429 521L389 452Q372 463 340 463Q292 463 248 416Q214 379 211 360L159 0H75L131 396Q136 429 136 459Q136 503 126 530H196Q208 505 211 460Q274 538 355 538Q396 538 429 521Z" />
<glyph unicode="s" glyph-name="s" horiz-adv-x="431" d="M411 498L375 433Q315 466 261 466Q221 466 194 452Q160 435 160 403Q160 359 257 294Q313 255 331 237Q380 189 380 133Q380 56 316 19Q268 -8 198 -8Q94 -8 20 46L61 110Q128 65 194 65Q293 65 293 127Q293
163 256 196Q253 198 196 239T120 298Q72 347 72 402Q72 471 136 508Q188 538 256 538Q336 538 411 498Z" />
<glyph unicode="t" glyph-name="t" horiz-adv-x="331" d="M328 530L319 464H219L179 176Q177 159 177 146Q177 73 263 65L252 -8Q186 -8 141 29Q91 70 91 143Q91 158 94 174L134 464H62L71 529H143L161 652H246L228 530H328Z" />
<glyph unicode="u" glyph-name="u" horiz-adv-x="574" d="M79 218L122 530H207L163 210Q159 185 159 165Q159 65 247 65Q298 65 341 112Q369 142 385 178L435 530H519L465 134Q460 102 460 73Q460 28 470 0H399Q384 32 385 68Q318 -8 229 -8Q163 -8 123 30Q75
75 75 165Q75 190 79 218Z" />
<glyph unicode="v" glyph-name="v" horiz-adv-x="443" d="M473 504L230 0H142L30 530H116L191 167L199 101H203L229 167L404 542L473 504Z" />
<glyph unicode="w" glyph-name="w" horiz-adv-x="724" d="M754 508L533 0H447L388 396H384L357 326L220 0H136L45 530H130L189 102H192L216 168L363 530H442L495 168L501 102H504L525 167L682 541L754 508Z" />
<glyph unicode="x" glyph-name="x" horiz-adv-x="463" d="M488 490L292 277L429 0H333L235 209L18 -19L-35 30L194 274L69 530H161L251 340L433 540L488 490Z" />
<glyph unicode="y" glyph-name="y" horiz-adv-x="443" d="M468 511Q409 322 307 139Q233 6 192 -52Q96 -186 -22 -266L-65 -206Q-17 -172 -1 -158Q40 -123 74 -76Q130 5 121 122Q108 304 24 530H107Q131 478 160 343Q194 190 194 92H200Q320 314 396 542L468 511Z" />
<glyph unicode="z" glyph-name="z" horiz-adv-x="462" d="M447 530L440 479L125 67H386L377 0H15L23 60L330 464H96L105 530H447Z" />
<glyph unicode="{" glyph-name="braceleft" horiz-adv-x="328" d="M358 818L350 761H312Q267 761 259 705L221 418Q216 381 192 356T134 325L133 323Q194 313 194 245Q194 236 193 228L152 -86Q151 -94 151 -101Q151 -142 189 -142H227L220 -199H151Q113 -199
91 -175T68 -110Q68 -100 69 -89L111 220Q113 231 113 240Q113 298 60 298L67 350Q129 350 140 428L178 708Q185 759 216 788T294 818H358Z" />
<glyph unicode="|" glyph-name="bar" horiz-adv-x="346" d="M316 854L173 -200H105L248 854H316Z" />
<glyph unicode="}" glyph-name="braceright" horiz-adv-x="378" d="M318 321L311 269Q249 269 238 191L200 -89Q193 -140 162 -169T84 -199H20L28 -142H66Q111 -142 118 -86L156 201Q161 238 185 263T244 294V296Q183 306 183 374Q183 383 185 391L226 705Q227
713 227 720Q227 761 188 761H150L158 818H227Q264 818 287 794T310 729Q310 719 308 708L266 399Q265 388 265 379Q265 321 318 321Z" />
<glyph unicode="~" glyph-name="asciitilde" horiz-adv-x="365" d="M335 674Q286 636 239 636Q217 636 182 651T126 667Q87 667 62 646L30 694Q78 735 131 735Q154 735 189 719T238 702Q277 702 304 723L335 674Z" />
<glyph unicode="&#xa0;" glyph-name="nbspace" horiz-adv-x="312" />
<glyph unicode="&#xa1;" glyph-name="exclamdown" horiz-adv-x="274" d="M40 -14L132 554H203L140 -14H40ZM125 715Q128 742 148 761T194 780Q222 780 239 761T254 715Q250 688 230 670T183 651Q156 651 139 670T125 715Z" />
<glyph unicode="&#xa2;" glyph-name="cent" horiz-adv-x="458" d="M324 635L306 507H245L263 635H324ZM242 38L222 -109H161L181 38H242ZM423 476L369 427Q338 465 283 465Q232 465 196 424Q152 372 141 263Q138 236 138 212Q138 65 246 65Q314 65 360 111L405
57Q327 -8 232 -8Q160 -8 110 44Q50 106 50 220Q50 240 52 262Q65 401 132 473Q193 538 285 538Q364 538 423 476Z" />
<glyph unicode="&#xa3;" glyph-name="sterling" horiz-adv-x="672" d="M612 165Q586 80 530 35T396 -10Q308 -10 223 51Q184 15 143 2Q112 -8 60 -8L69 56Q170 57 181 141L207 330H113L121 391H215L235 519Q268 732 441 732Q541 732 606 634L556 591Q501 666 439
666Q335 666 314 508L298 391H397L389 330H290L265 148Q263 132 260 122Q309 62 400 62Q504 62 546 185L612 165Z" />
<glyph unicode="&#xa4;" glyph-name="currency" horiz-adv-x="789" d="M557 441H80L88 499H565L557 441ZM537 293H60L68 351H545L537 293ZM749 642L680 609Q629 713 520 713Q412 713 342 617Q278 530 260 389Q255 350 255 314Q255 202 301 136Q348 67 434 67Q548
67 622 176L681 136Q587 -7 427 -7Q321 -7 246 69Q158 157 158 313Q158 349 164 389Q189 589 303 698Q397 788 513 788Q676 788 749 642Z" />
<glyph unicode="&#xa5;" glyph-name="yen" horiz-adv-x="598" d="M541 346L532 283H149L158 346H541ZM678 746L383 317L336 0H246L293 321L100 780H193L351 415H358L610 792L678 746Z" />
<glyph unicode="&#xa7;" glyph-name="section" horiz-adv-x="548" d="M254 481Q189 434 189 371Q189 303 311 148Q343 176 351 188Q366 211 371 252Q375 291 350 337Q327 371 305 404T254 481ZM314 -74Q263 -132 181 -132Q150 -132 112 -118T60 -90L104 -33Q134
-59 178 -59Q217 -59 246 -34T275 30Q275 63 244 109Q214 149 185 188Q110 288 110 374Q110 475 216 537Q195 577 195 622Q195 672 225 708Q252 738 278 751Q312 767 367 767Q433 767 488 733L447 676Q409 701 368 701Q334 701 308 683Q278 663 273 627Q268 589
313 521Q344 478 375 436Q421 366 424 361Q452 309 449 256Q443 149 341 88Q352 54 352 24Q352 -31 314 -74Z" />
<glyph unicode="&#xa8;" glyph-name="dieresis" horiz-adv-x="382" d="M322 678Q321 656 304 640T266 623Q244 623 230 638T216 675Q217 698 233 713T273 729Q295 729 309 714T322 678ZM166 678Q165 656 148 640T110 623Q88 623 74 638T60 675Q61 698 77 713T117
729Q138 729 153 714T166 678Z" />
<glyph unicode="&#xa9;" glyph-name="copyright" horiz-adv-x="993" d="M662 476L608 427Q597 444 572 455T519 466Q476 466 438 423Q388 368 378 263Q375 237 375 214Q375 60 484 60Q513 60 551 77Q586 92 601 108L643 57Q603 22 568 7Q526 -9 463 -9Q393 -9
345 43Q289 104 289 217Q289 239 291 262Q304 401 370 473Q430 538 521 538Q607 538 662 476ZM927 259Q899 45 775 -82Q645 -215 444 -215Q258 -215 156 -98Q60 13 60 201Q60 234 63 269Q83 477 214 605T544 733Q722 733 829 621Q933 512 933 336Q933 298 927 259ZM841
259Q847 301 847 339Q847 485 771 570Q692 658 548 658Q378 658 272 552Q170 450 146 272Q140 231 140 193Q140 44 217 -46Q299 -140 444 -140Q612 -140 718 -27Q817 78 841 259Z" />
<glyph unicode="&#xaa;" glyph-name="ordfeminine" horiz-adv-x="439" d="M379 815L341 547Q332 481 340 444H280Q271 457 273 477Q232 438 180 438Q127 438 94 480T60 596Q60 620 64 646Q79 746 136 790Q175 821 227 821Q282 821 315 794L321 815H379ZM307 733Q272
767 225 767Q143 767 124 634Q121 614 121 596Q121 547 140 519T189 490Q218 490 250 517Q271 535 282 553L307 733Z" />
<glyph unicode="&#xab;" glyph-name="guillemotleft" horiz-adv-x="696" d="M642 530L392 294L568 60H479L303 288L306 305L543 530H642ZM399 530L149 294L325 60H236L60 288L62 305L300 530H399Z" />
<glyph unicode="&#xac;" glyph-name="logicalnot" horiz-adv-x="509" d="M449 358L424 174H356L373 294H60L69 358H449Z" />
<glyph unicode="&#xae;" glyph-name="registered" horiz-adv-x="993" d="M670 0H579L519 202H394L366 0H284L356 529H521Q625 529 674 483Q720 441 714 364Q704 246 597 213L670 0ZM632 367Q643 455 516 455H428L404 276H502Q561 276 588 291Q625 310 632 367ZM927
259Q899 45 775 -82Q645 -215 444 -215Q258 -215 156 -98Q60 13 60 201Q60 234 63 269Q83 477 214 605T544 733Q722 733 829 621Q933 512 933 336Q933 298 927 259ZM841 259Q847 301 847 339Q847 485 771 570Q692 658 548 658Q378 658 272 552Q170 450 146 272Q140
231 140 193Q140 44 217 -46Q299 -140 444 -140Q612 -140 718 -27Q817 78 841 259Z" />
<glyph unicode="&#xaf;" glyph-name="overscore" horiz-adv-x="366" d="M334 727L325 663H77L86 727H334Z" />
<glyph unicode="0;" glyph-name="degree" horiz-adv-x="485" d="M424 660Q414 576 357 529Q305 485 232 485Q154 485 104 535T61 664Q67 743 126 792T262 842Q332 842 378 798T425 683Q425 672 424 660ZM353 678Q353 721 325 748T252 776Q200 776 166 739T131
648Q131 606 160 579T232 552Q285 552 319 588T353 678Z" />
<glyph unicode="1;" glyph-name="plusminus" horiz-adv-x="536" d="M468 388H315L294 235H226L247 388H94L103 452H256L276 605H344L323 452H476L468 388ZM434 132H60L69 196H442L434 132Z" />
<glyph unicode="4;" glyph-name="acute" horiz-adv-x="268" d="M208 775L125 621H60L133 775H208Z" />
<glyph unicode="5;" glyph-name="mu" horiz-adv-x="678" d="M568 530L513 134Q510 106 510 80Q510 30 522 0H452Q439 26 436 73Q395 29 378 18Q339 -8 280 -8Q219 -8 190 42L145 -296H60L171 530H256L209 181Q208 169 208 157Q208 65 291 65Q340 65 381 100Q394
111 431 156L483 530H568Z" />
<glyph unicode="6;" glyph-name="paragraph" horiz-adv-x="554" d="M292 817L245 471H236Q171 471 128 516T85 627Q85 706 144 761T283 817H292ZM329 -62Q310 -208 125 -207L134 -139Q235 -139 245 -57L361 817H534L525 750L437 749L329 -62Z" />
<glyph unicode="7;" glyph-name="middot" horiz-adv-x="250" d="M189 289Q185 263 166 245T120 227Q93 227 75 247T61 293Q64 320 83 338T130 356Q157 356 175 336T189 289Z" />
<glyph unicode="8;" glyph-name="cedilla" horiz-adv-x="282" d="M35 -249Q-9 -249 -33 -220L-3 -192Q15 -207 38 -207Q90 -207 99 -143Q106 -93 64 -79Q45 -73 23 -79L62 26H113L87 -45Q144 -64 144 -130Q144 -179 114 -214T35 -249Z" />
<glyph unicode="a;" glyph-name="ordmasculine" horiz-adv-x="428" d="M365 629Q339 438 189 438Q132 438 98 472Q60 511 60 585Q60 606 63 629Q76 727 127 776Q172 821 240 821Q294 821 328 787Q368 748 368 673Q368 652 365 629ZM303 629Q306 650 306 668Q306
767 231 767Q143 767 125 629Q122 607 122 589Q122 490 197 490Q285 490 303 629Z" />
<glyph unicode="b;" glyph-name="guillemotright" horiz-adv-x="656" d="M54 60L304 296L129 530H218L393 302L390 285L153 60H54ZM297 60L547 296L372 530H461L636 302L634 285L396 60H297Z" />
<glyph unicode="f;" glyph-name="questiondown" horiz-adv-x="478" d="M436 721Q432 693 413 676T366 658Q340 658 322 678T307 725Q311 751 331 769T377 787Q404 787 421 767T436 721ZM458 50Q366 -13 265 -13Q170 -13 115 33T60 155Q60 167 62 180Q70 243
115 286Q162 322 209 358Q291 423 303 505L313 580H396L388 504Q384 456 350 401Q315 343 265 304Q226 275 187 247Q149 213 146 172Q141 113 183 83Q217 59 265 59Q314 59 352 74Q372 83 424 115L458 50Z" />
<glyph unicode="0;" glyph-name="Agrave" horiz-adv-x="645" d="M605 0H518L492 219H200L75 0H-20L418 747H505L605 0ZM483 289L442 643H435L412 596L236 289H483ZM500 800H434L393 954H468L500 800Z" />
<glyph unicode="1;" glyph-name="Aacute" horiz-adv-x="645" d="M605 0H518L492 219H200L75 0H-20L418 747H505L605 0ZM483 289L442 643H435L412 596L236 289H483ZM593 954L510 800H445L519 954H593Z" />
<glyph unicode="2;" glyph-name="Acircumflex" horiz-adv-x="646" d="M606 793H538L481 879L401 793H330L458 939H522L606 793ZM605 0H518L492 219H200L75 0H-20L418 747H505L605 0ZM483 289L442 643H435L412 596L236 289H483Z" />
<glyph unicode="3;" glyph-name="Atilde" horiz-adv-x="664" d="M605 0H518L492 219H200L75 0H-20L418 747H505L605 0ZM483 289L442 643H435L412 596L236 289H483ZM624 833Q570 795 527 795Q506 795 475 810T421 826Q380 826 349 801L322 853Q368 894 418
894Q441 894 473 878T518 861Q544 861 552 863Q572 867 601 887L624 833Z" />
<glyph unicode="4;" glyph-name="Adieresis" horiz-adv-x="671" d="M605 0H518L492 219H200L75 0H-20L418 747H505L605 0ZM483 289L442 643H435L412 596L236 289H483ZM631 848Q630 825 613 809T575 793Q553 793 539 808T525 844Q526 867 542 882T582 898Q603
898 618 884T631 848ZM425 848Q424 825 407 809T368 793Q346 793 332 808T319 844Q320 867 336 882T376 898Q397 898 411 884T425 848Z" />
<glyph unicode="5;" glyph-name="Aring" horiz-adv-x="645" d="M605 0H518L492 219H200L75 0H-20L418 747H505L605 0ZM483 289L442 643H435L412 596L236 289H483ZM586 900Q581 859 551 830T480 800Q439 800 411 830T387 900Q393 942 424 971T497 1000Q538
1000 564 971T586 900ZM538 900Q541 922 528 937T492 953Q470 953 453 938T433 900Q430 879 444 864T481 848Q503 848 519 863T538 900Z" />
<glyph unicode="6;" glyph-name="AE" horiz-adv-x="894" d="M497 676V676H494L473 640L261 316H449L497 676ZM929 780L919 708H595L558 437H843L833 365H548L509 72H850L840 0H407L440 246H225L65 0H-30L473 780H929Z" />
<glyph unicode="7;" glyph-name="Ccedilla" horiz-adv-x="626" d="M686 642L617 609Q565 713 456 713Q349 713 278 617Q215 530 197 389Q192 350 192 314Q192 202 237 136Q285 67 370 67Q485 67 559 176L618 136Q524 -7 363 -7Q257 -7 182 69Q95 157 95 313Q95
349 100 389Q126 589 239 698Q333 788 450 788Q613 788 686 642ZM315 -249Q271 -249 247 -220L277 -192Q295 -207 318 -207Q370 -207 379 -143Q386 -93 344 -79Q325 -73 303 -79L342 26H393L367 -45Q424 -64 424 -130Q424 -179 394 -214T315 -249Z" />
<glyph unicode="8;" glyph-name="Egrave" horiz-adv-x="609" d="M644 726L634 654H280L247 415H562L552 343H237L201 72H572L562 0H100L198 726H644ZM459 800H393L352 954H427L459 800Z" />
<glyph unicode="9;" glyph-name="Eacute" horiz-adv-x="609" d="M528 954L445 800H380L453 954H528ZM644 726L634 654H280L247 415H562L552 343H237L201 72H572L562 0H100L198 726H644Z" />
<glyph unicode="a;" glyph-name="Ecircumflex" horiz-adv-x="609" d="M644 726L634 654H280L247 415H562L552 343H237L201 72H572L562 0H100L198 726H644ZM571 800H504L446 886L366 800H295L423 946H487L571 800Z" />
<glyph unicode="b;" glyph-name="Edieresis" horiz-adv-x="609" d="M590 848Q590 826 575 810T536 794Q514 794 498 810T482 848Q482 870 498 886T536 902Q559 902 574 887T590 848ZM389 848Q389 826 374 810T335 794Q313 794 297 810T281 848Q281 871 297
886T335 902Q358 902 373 887T389 848ZM644 726L634 654H280L247 415H562L552 343H237L201 72H572L562 0H100L198 726H644Z" />
<glyph unicode="c;" glyph-name="Igrave" horiz-adv-x="364" d="M381 725L374 669H314L230 56H290L282 0H77L84 56H144L228 669H168L175 725H381ZM310 800H244L203 954H278L310 800Z" />
<glyph unicode="d;" glyph-name="Iacute" horiz-adv-x="368" d="M381 725L374 669H314L230 56H290L282 0H77L84 56H144L228 669H168L175 725H381ZM405 954L322 800H257L330 954H405Z" />
<glyph unicode="e;" glyph-name="Icircumflex" horiz-adv-x="372" d="M381 725L374 669H314L230 56H290L282 0H77L84 56H144L228 669H168L175 725H381ZM425 800H358L301 886L220 800H149L277 946H341L425 800Z" />
<glyph unicode="f;" glyph-name="Idieresis" horiz-adv-x="373" d="M445 847Q445 825 430 809T391 793Q369 793 353 809T337 847Q337 869 353 885T391 901Q413 901 429 885T445 847ZM246 847Q246 825 231 809T192 793Q170 793 154 809T138 847Q138 869 154
885T192 901Q214 901 230 885T246 847ZM381 725L374 669H314L230 56H290L282 0H77L84 56H144L228 669H168L175 725H381Z" />
<glyph unicode="&#xd1;" glyph-name="Ntilde" horiz-adv-x="768" d="M636 829Q582 791 539 791Q518 791 487 806T433 822Q392 822 361 797L334 849Q380 890 429 890Q453 890 485 874T530 857Q556 857 564 858Q584 863 613 883L636 829ZM736 726L630 0H530L275
635H267L174 0H100L204 726H319L564 109H571L659 726H736Z" />
<glyph unicode="&#xd2;" glyph-name="Ograve" horiz-adv-x="762" d="M754 360Q732 156 607 62Q515 -8 388 -8Q285 -8 201 61Q95 148 95 306Q95 332 98 360Q119 550 246 650Q346 730 468 730Q575 730 658 655Q757 566 757 413Q757 387 754 360ZM664 360Q667 387
667 412Q667 528 608 593Q551 655 457 655Q349 655 277 577T188 360Q185 333 185 307Q185 201 236 136Q292 64 398 64Q507 64 578 143T664 360ZM524 798H458L417 952H492L524 798Z" />
<glyph unicode="&#xd3;" glyph-name="Oacute" horiz-adv-x="762" d="M754 360Q732 156 607 62Q515 -8 388 -8Q285 -8 201 61Q95 148 95 306Q95 332 98 360Q119 550 246 650Q346 730 468 730Q575 730 658 655Q757 566 757 413Q757 387 754 360ZM664 360Q667 387
667 412Q667 528 608 593Q551 655 457 655Q349 655 277 577T188 360Q185 333 185 307Q185 201 236 136Q292 64 398 64Q507 64 578 143T664 360ZM594 954L511 800H446L519 954H594Z" />
<glyph unicode="&#xd4;" glyph-name="Ocircumflex" horiz-adv-x="762" d="M754 360Q732 156 607 62Q515 -8 388 -8Q285 -8 201 61Q95 148 95 306Q95 332 98 360Q119 550 246 650Q346 730 468 730Q575 730 658 655Q757 566 757 413Q757 387 754 360ZM664 360Q667
387 667 412Q667 528 608 593Q551 655 457 655Q349 655 277 577T188 360Q185 333 185 307Q185 201 236 136Q292 64 398 64Q507 64 578 143T664 360ZM619 800H552L495 886L414 800H343L472 946H536L619 800Z" />
<glyph unicode="&#xd5;" glyph-name="Otilde" horiz-adv-x="762" d="M754 360Q732 156 607 62Q515 -8 388 -8Q285 -8 201 61Q95 148 95 306Q95 332 98 360Q119 550 246 650Q346 730 468 730Q575 730 658 655Q757 566 757 413Q757 387 754 360ZM664 360Q667 387
667 412Q667 528 608 593Q551 655 457 655Q349 655 277 577T188 360Q185 333 185 307Q185 201 236 136Q292 64 398 64Q507 64 578 143T664 360ZM648 820Q594 782 551 782Q530 782 498 797T445 813Q404 813 372 788L345 840Q391 881 441 881Q464 881 496 865T542
848Q568 848 575 849Q595 854 624 874L648 820Z" />
<glyph unicode="&#xd6;" glyph-name="Odieresis" horiz-adv-x="762" d="M754 360Q732 156 607 62Q515 -8 388 -8Q285 -8 201 61Q95 148 95 306Q95 332 98 360Q119 550 246 650Q346 730 468 730Q575 730 658 655Q757 566 757 413Q757 387 754 360ZM664 360Q667
387 667 412Q667 528 608 593Q551 655 457 655Q349 655 277 577T188 360Q185 333 185 307Q185 201 236 136Q292 64 398 64Q507 64 578 143T664 360ZM631 847Q629 824 613 808T574 792Q552 792 538 807T524 843Q526 866 542 881T581 897Q603 897 617 883T631 847ZM455
847Q453 824 437 808T398 792Q376 792 362 807T348 843Q349 866 366 881T405 897Q427 897 441 883T455 847Z" />
<glyph unicode="&#xd8;" glyph-name="Oslash" horiz-adv-x="767" d="M757 390Q730 192 610 84Q507 -8 375 -8Q307 -8 248 23L198 -59H119L192 61Q95 148 95 310Q95 348 101 390Q128 589 249 696Q352 788 485 788Q553 788 612 757L663 840H742L668 717Q762 629
762 468Q762 431 757 390ZM571 688Q529 713 473 713Q334 713 253 577Q185 462 185 313Q185 197 235 133L571 688ZM672 460Q672 573 622 641L287 88Q328 66 384 66Q521 66 602 200Q672 314 672 460Z" />
<glyph unicode="&#xd9;" glyph-name="Ugrave" horiz-adv-x="729" d="M498 800H432L391 954H466L498 800ZM729 759L660 276Q639 129 548 56Q469 -8 354 -8Q259 -8 192 45Q110 111 110 234Q110 262 114 292L182 759H272L205 287Q201 259 201 235Q201 144 253 100Q295
65 357 65Q432 65 485 107Q552 161 569 277L639 759H729Z" />
<glyph unicode="&#xda;" glyph-name="Uacute" horiz-adv-x="729" d="M565 952L482 798H417L491 952H565ZM729 759L660 276Q639 129 548 56Q469 -8 354 -8Q259 -8 192 45Q110 111 110 234Q110 262 114 292L182 759H272L205 287Q201 259 201 235Q201 144 253 100Q295
65 357 65Q432 65 485 107Q552 161 569 277L639 759H729Z" />
<glyph unicode="&#xdb;" glyph-name="Ucircumflex" horiz-adv-x="729" d="M600 800H532L475 886L395 800H324L452 946H516L600 800ZM729 759L660 276Q639 129 548 56Q469 -8 354 -8Q259 -8 192 45Q110 111 110 234Q110 262 114 292L182 759H272L205 287Q201 259
201 235Q201 144 253 100Q295 65 357 65Q432 65 485 107Q552 161 569 277L639 759H729Z" />
<glyph unicode="&#xdc;" glyph-name="Udieresis" horiz-adv-x="729" d="M614 847Q613 824 596 808T558 792Q536 792 522 807T508 843Q509 866 525 881T565 897Q586 897 601 883T614 847ZM438 847Q437 824 420 808T381 792Q359 792 345 807T332 843Q333 866 349
881T389 897Q410 897 424 883T438 847ZM729 759L660 276Q639 129 548 56Q469 -8 354 -8Q259 -8 192 45Q110 111 110 234Q110 262 114 292L182 759H272L205 287Q201 259 201 235Q201 144 253 100Q295 65 357 65Q432 65 485 107Q552 161 569 277L639 759H729Z" />
<glyph unicode="&#xdf;" glyph-name="germandbls" horiz-adv-x="524" d="M130 -53Q119 -134 57 -174Q4 -207 -75 -207L-66 -139Q38 -139 49 -57L139 630Q150 717 204 764T341 812Q430 812 475 761Q509 722 509 667Q509 615 482 565Q456 527 431 489Q404 448 404
414Q404 376 450 300T491 167Q483 87 431 40T306 -8Q243 -8 200 27L243 84Q269 65 309 65Q343 65 371 93T405 164Q411 207 362 278Q311 354 311 405Q311 416 313 426Q320 482 366 540T418 647Q423 686 403 713Q381 744 338 744Q288 744 256 707Q230 676 224 632L130
-53Z" />
<glyph unicode="&#xe0;" glyph-name="agrave" horiz-adv-x="569" d="M517 530L461 147Q454 100 454 70Q454 47 463 0H387Q371 27 374 60Q310 -8 222 -8Q148 -8 104 50T60 210Q60 248 66 289Q88 431 170 494Q226 538 300 538Q382 538 428 500L436 530H517ZM416
420Q369 465 298 465Q251 465 214 425Q167 374 152 271Q147 236 147 205Q147 65 234 65Q279 65 324 101Q362 131 379 167L416 420ZM371 621H305L264 775H339L371 621Z" />
<glyph unicode="&#xe1;" glyph-name="aacute" horiz-adv-x="569" d="M517 530L461 147Q454 100 454 70Q454 47 463 0H387Q371 27 374 60Q310 -8 222 -8Q148 -8 104 50T60 210Q60 248 66 289Q88 431 170 494Q226 538 300 538Q382 538 428 500L436 530H517ZM416
420Q369 465 298 465Q251 465 214 425Q167 374 152 271Q147 236 147 205Q147 65 234 65Q279 65 324 101Q362 131 379 167L416 420ZM429 775L346 621H281L354 775H429Z" />
<glyph unicode="&#xe2;" glyph-name="acircumflex" horiz-adv-x="569" d="M517 530L461 147Q454 100 454 70Q454 47 463 0H387Q371 27 374 60Q310 -8 222 -8Q148 -8 104 50T60 210Q60 248 66 289Q88 431 170 494Q226 538 300 538Q382 538 428 500L436 530H517ZM416
420Q369 465 298 465Q251 465 214 425Q167 374 152 271Q147 236 147 205Q147 65 234 65Q279 65 324 101Q362 131 379 167L416 420ZM470 627H403L346 713L265 627H194L323 773H387L470 627Z" />
<glyph unicode="&#xe3;" glyph-name="atilde" horiz-adv-x="569" d="M517 530L461 147Q454 100 454 70Q454 47 463 0H387Q371 27 374 60Q310 -8 222 -8Q148 -8 104 50T60 210Q60 248 66 289Q88 431 170 494Q226 538 300 538Q382 538 428 500L436 530H517ZM416
420Q369 465 298 465Q251 465 214 425Q167 374 152 271Q147 236 147 205Q147 65 234 65Q279 65 324 101Q362 131 379 167L416 420ZM489 674Q435 636 392 636Q371 636 339 651T286 667Q245 667 213 642L186 694Q232 735 282 735Q305 735 337 719T383 702Q409 702
416 704Q436 708 465 728L489 674Z" />
<glyph unicode="&#xe4;" glyph-name="adieresis" horiz-adv-x="569" d="M517 530L461 147Q454 100 454 70Q454 47 463 0H387Q371 27 374 60Q310 -8 222 -8Q148 -8 104 50T60 210Q60 248 66 289Q88 431 170 494Q226 538 300 538Q382 538 428 500L436 530H517ZM416
420Q369 465 298 465Q251 465 214 425Q167 374 152 271Q147 236 147 205Q147 65 234 65Q279 65 324 101Q362 131 379 167L416 420ZM486 673Q486 651 470 635T432 619Q409 619 394 635T378 673Q378 696 393 711T432 727Q454 727 470 712T486 673ZM297 673Q297 651
281 635T243 619Q221 619 206 635T190 673Q190 695 205 711T243 727Q265 727 281 712T297 673Z" />
<glyph unicode="&#xe5;" glyph-name="aring" horiz-adv-x="569" d="M517 530L461 147Q454 100 454 70Q454 47 463 0H387Q371 27 374 60Q310 -8 222 -8Q148 -8 104 50T60 210Q60 248 66 289Q88 431 170 494Q226 538 300 538Q382 538 428 500L436 530H517ZM416 420Q369
465 298 465Q251 465 214 425Q167 374 152 271Q147 236 147 205Q147 65 234 65Q279 65 324 101Q362 131 379 167L416 420ZM446 707Q441 665 411 636T340 607Q299 607 270 637T247 707Q252 749 284 778T357 807Q398 807 424 778T446 707ZM398 707Q401 729 388 744T352
760Q330 760 313 745T293 707Q290 685 304 670T341 655Q362 655 378 670T398 707Z" />
<glyph unicode="&#xe6;" glyph-name="ae" horiz-adv-x="751" d="M726 384Q723 320 674 275Q632 237 569 223Q533 215 491 215Q445 215 397 225Q396 213 396 201Q396 137 427 100Q460 60 518 60Q579 60 635 108L686 57Q612 -9 502 -9Q401 -9 353 69Q266 -9 171
-9Q98 -9 51 27Q0 65 0 132Q0 214 71 271Q137 323 221 323Q269 323 326 309L334 365Q335 378 335 389Q335 468 249 468Q183 468 130 436L111 502Q185 538 257 538Q356 538 396 462Q416 493 456 515Q502 539 552 539Q633 539 681 498T726 384ZM632 377Q634 386 634
394Q634 431 603 451Q578 466 546 466Q431 466 406 296Q428 287 479 287Q518 287 549 295Q620 311 632 377ZM316 237Q260 250 219 250Q174 250 136 223Q94 193 90 146Q87 106 114 84Q138 65 178 65Q255 65 302 119L316 237Z" />
<glyph unicode="&#xe7;" glyph-name="ccedilla" horiz-adv-x="438" d="M433 476L379 427Q348 465 293 465Q242 465 206 424Q162 372 151 263Q148 236 148 212Q148 65 256 65Q324 65 370 111L415 57Q337 -8 242 -8Q170 -8 120 43Q60 106 60 220Q60 240 62 262Q75
401 142 473Q203 538 295 538Q374 538 433 476ZM203 -249Q159 -249 135 -220L165 -192Q183 -207 206 -207Q258 -207 267 -143Q274 -93 232 -79Q213 -73 191 -79L230 26H281L255 -45Q312 -64 312 -130Q312 -179 282 -214T203 -249Z" />
<glyph unicode="&#xe8;" glyph-name="egrave" horiz-adv-x="501" d="M476 384Q472 320 424 275Q382 237 318 223Q282 215 241 215Q194 215 147 225Q142 65 264 65Q332 65 391 109L430 51Q357 -8 252 -8Q175 -8 122 44Q60 106 60 221Q60 241 62 262Q75 401 142
473Q204 538 300 538Q383 538 431 495T476 384ZM382 377Q383 385 383 392Q383 430 352 450Q328 465 295 465Q180 465 154 289Q177 281 228 281Q257 281 283 285Q371 299 382 377ZM357 621H291L250 775H325L357 621Z" />
<glyph unicode="&#xe9;" glyph-name="eacute" horiz-adv-x="501" d="M476 384Q472 320 424 275Q382 237 318 223Q282 215 241 215Q194 215 147 225Q142 65 264 65Q332 65 391 109L430 51Q357 -8 252 -8Q175 -8 122 44Q60 106 60 221Q60 241 62 262Q75 401 142
473Q204 538 300 538Q383 538 431 495T476 384ZM382 377Q383 385 383 392Q383 430 352 450Q328 465 295 465Q180 465 154 289Q177 281 228 281Q257 281 283 285Q371 299 382 377ZM428 775L345 621H280L353 775H428Z" />
<glyph unicode="&#xea;" glyph-name="ecircumflex" horiz-adv-x="501" d="M476 384Q472 320 424 275Q382 237 318 223Q282 215 241 215Q194 215 147 225Q142 65 264 65Q332 65 391 109L430 51Q357 -8 252 -8Q175 -8 122 44Q60 106 60 221Q60 241 62 262Q75 401
142 473Q204 538 300 538Q383 538 431 495T476 384ZM382 377Q383 385 383 392Q383 430 352 450Q328 465 295 465Q180 465 154 289Q177 281 228 281Q257 281 283 285Q371 299 382 377ZM449 627H382L325 713L244 627H173L302 773H366L449 627Z" />
<glyph unicode="&#xeb;" glyph-name="edieresis" horiz-adv-x="501" d="M476 384Q472 320 424 275Q382 237 318 223Q282 215 241 215Q194 215 147 225Q142 65 264 65Q332 65 391 109L430 51Q357 -8 252 -8Q175 -8 122 44Q60 106 60 221Q60 241 62 262Q75 401 142
473Q204 538 300 538Q383 538 431 495T476 384ZM382 377Q383 385 383 392Q383 430 352 450Q328 465 295 465Q180 465 154 289Q177 281 228 281Q257 281 283 285Q371 299 382 377ZM466 678Q465 656 448 640T410 623Q388 623 374 638T360 675Q361 698 377 713T417
729Q439 729 453 714T466 678ZM310 678Q309 656 292 640T254 623Q232 623 218 638T204 675Q205 698 221 713T261 729Q282 729 297 714T310 678Z" />
<glyph unicode="&#xec;" glyph-name="igrave" horiz-adv-x="264" d="M465 530L414 169Q411 149 411 133Q411 72 455 65L446 -8Q394 -8 360 30T326 132Q326 149 329 167L380 530H465ZM461 621H395L354 775H429L461 621Z" />
<glyph unicode="&#xed;" glyph-name="iacute" horiz-adv-x="266" d="M465 530L414 169Q411 149 411 133Q411 72 455 65L446 -8Q394 -8 360 30T326 132Q326 149 329 167L380 530H465ZM306 775L223 621H158L231 775H306Z" />
<glyph unicode="&#xee;" glyph-name="icircumflex" horiz-adv-x="266" d="M467 530L416 169Q413 149 413 133Q413 72 457 65L448 -8Q396 -8 362 30T328 132Q328 149 331 167L382 530H467ZM582 627H515L458 713L377 627H306L435 773H499L582 627Z" />
<glyph unicode="&#xef;" glyph-name="idieresis" horiz-adv-x="267" d="M317 678Q316 656 299 640T261 623Q239 623 225 638T211 675Q212 698 228 713T268 729Q290 729 304 714T317 678ZM161 678Q160 656 143 640T105 623Q83 623 69 638T55 675Q56 698 72 713T112
729Q133 729 148 714T161 678ZM212 530L161 169Q158 149 158 133Q158 72 202 65L192 -8Q140 -8 107 30T73 132Q73 149 76 167L127 530H212Z" />
<glyph unicode="&#xf1;" glyph-name="ntilde" horiz-adv-x="606" d="M538 327L493 0H408L452 320Q456 348 456 369Q456 465 371 465Q318 465 269 422Q233 390 220 359L169 0H85L140 396Q144 428 144 457Q144 503 134 530H205Q215 507 219 461Q286 538 385 538Q449
538 489 505Q541 463 541 375Q541 352 538 327ZM536 674Q482 636 439 636Q418 636 386 651T333 667Q292 667 260 642L233 694Q279 735 329 735Q352 735 384 719T430 702Q456 702 463 704Q483 708 512 728L536 674Z" />
<glyph unicode="&#xf2;" glyph-name="ograve" horiz-adv-x="520" d="M490 264Q454 -8 243 -8Q161 -8 111 41Q55 96 55 203Q55 232 59 264Q78 404 150 475Q215 538 312 538Q390 538 438 490Q495 434 495 326Q495 297 490 264ZM402 264Q407 301 407 331Q407 465
303 465Q174 465 147 264Q143 228 143 199Q143 65 250 65Q376 65 402 264ZM357 621H291L250 775H325L357 621Z" />
<glyph unicode="&#xf3;" glyph-name="oacute" horiz-adv-x="520" d="M490 264Q454 -8 243 -8Q161 -8 111 41Q55 96 55 203Q55 232 59 264Q78 404 150 475Q215 538 312 538Q390 538 438 490Q495 434 495 326Q495 297 490 264ZM402 264Q407 301 407 331Q407 465
303 465Q174 465 147 264Q143 228 143 199Q143 65 250 65Q376 65 402 264ZM438 775L355 621H290L363 775H438Z" />
<glyph unicode="&#xf4;" glyph-name="ocircumflex" horiz-adv-x="520" d="M490 264Q454 -8 243 -8Q161 -8 111 41Q55 96 55 203Q55 232 59 264Q78 404 150 475Q215 538 312 538Q390 538 438 490Q495 434 495 326Q495 297 490 264ZM402 264Q407 301 407 331Q407
465 303 465Q174 465 147 264Q143 228 143 199Q143 65 250 65Q376 65 402 264ZM470 627H403L346 713L265 627H194L323 773H387L470 627Z" />
<glyph unicode="&#xf5;" glyph-name="otilde" horiz-adv-x="520" d="M490 264Q454 -8 243 -8Q161 -8 111 41Q55 96 55 203Q55 232 59 264Q78 404 150 475Q215 538 312 538Q390 538 438 490Q495 434 495 326Q495 297 490 264ZM402 264Q407 301 407 331Q407 465
303 465Q174 465 147 264Q143 228 143 199Q143 65 250 65Q376 65 402 264ZM489 674Q435 636 392 636Q371 636 339 651T286 667Q245 667 213 642L186 694Q232 735 282 735Q305 735 337 719T383 702Q409 702 416 704Q436 708 465 728L489 674Z" />
<glyph unicode="&#xf6;" glyph-name="odieresis" horiz-adv-x="520" d="M490 264Q454 -8 243 -8Q161 -8 111 41Q55 96 55 203Q55 232 59 264Q78 404 150 475Q215 538 312 538Q390 538 438 490Q495 434 495 326Q495 297 490 264ZM402 264Q407 301 407 331Q407 465
303 465Q174 465 147 264Q143 228 143 199Q143 65 250 65Q376 65 402 264ZM486 674Q486 652 470 637T432 621Q410 621 394 636T378 674Q378 697 394 712T432 728Q455 728 470 713T486 674ZM297 674Q297 652 281 637T243 621Q221 621 206 636T190 674Q190 696 205
712T243 728Q266 728 281 713T297 674Z" />
<glyph unicode="&#xf7;" glyph-name="divide" horiz-adv-x="477" d="M408 244H60L69 308H417L408 244ZM326 434Q322 407 302 389T256 371Q229 371 212 391T197 438Q201 465 220 482T267 500Q293 500 311 481T326 434ZM284 119Q281 92 261 74T215 56Q188 56 170
76T156 123Q159 150 178 167T225 185Q252 185 270 165T284 119Z" />
<glyph unicode="&#xf8;" glyph-name="oslash" horiz-adv-x="561" d="M536 584H462L55 -60H129L536 584ZM529 264Q493 -8 282 -8Q200 -8 150 41Q94 96 94 203Q94 232 98 264Q117 404 189 475Q254 538 351 538Q428 538 477 490Q534 434 534 326Q534 297 529 264ZM441
264Q446 301 446 331Q446 465 342 465Q213 465 186 264Q181 228 181 199Q181 65 289 65Q415 65 441 264Z" />
<glyph unicode="&#xf9;" glyph-name="ugrave" horiz-adv-x="574" d="M79 218L122 530H207L163 210Q159 185 159 165Q159 65 247 65Q298 65 341 112Q369 142 385 178L435 530H519L465 134Q460 102 460 73Q460 28 470 0H399Q384 32 385 68Q318 -8 229 -8Q163 -8
123 30Q75 75 75 165Q75 190 79 218ZM367 621H301L260 775H335L367 621Z" />
<glyph unicode="&#xfa;" glyph-name="uacute" horiz-adv-x="574" d="M79 218L122 530H207L163 210Q159 185 159 165Q159 65 247 65Q298 65 341 112Q369 142 385 178L435 530H519L465 134Q460 102 460 73Q460 28 470 0H399Q384 32 385 68Q318 -8 229 -8Q163 -8
123 30Q75 75 75 165Q75 190 79 218ZM448 775L365 621H300L373 775H448Z" />
<glyph unicode="&#xfb;" glyph-name="ucircumflex" horiz-adv-x="574" d="M79 218L122 530H207L163 210Q159 185 159 165Q159 65 247 65Q298 65 341 112Q369 142 385 178L435 530H519L465 134Q460 102 460 73Q460 28 470 0H399Q384 32 385 68Q318 -8 229 -8Q163
-8 123 30Q75 75 75 165Q75 190 79 218ZM480 627H413L356 713L275 627H204L333 773H397L480 627Z" />
<glyph unicode="&#xfc;" glyph-name="udieresis" horiz-adv-x="574" d="M79 218L122 530H207L163 210Q159 185 159 165Q159 65 247 65Q298 65 341 112Q369 142 385 178L435 530H519L465 134Q460 102 460 73Q460 28 470 0H399Q384 32 385 68Q318 -8 229 -8Q163
-8 123 30Q75 75 75 165Q75 190 79 218ZM496 672Q496 650 480 634T442 618Q420 618 405 634T389 672Q389 694 404 710T442 726Q465 726 480 711T496 672ZM308 672Q308 650 292 634T254 618Q232 618 216 634T200 672Q200 695 216 710T254 726Q277 726 292 711T308
672Z" />
<glyph unicode="&#xff;" glyph-name="ydieresis" horiz-adv-x="443" d="M468 511Q409 322 307 139Q233 6 192 -52Q96 -186 -22 -266L-65 -206Q-17 -172 -1 -158Q40 -123 74 -76Q130 5 121 122Q108 304 24 530H107Q131 478 160 343Q194 190 194 92H200Q320 314
396 542L468 511ZM420 673Q420 651 404 635T366 619Q344 619 328 635T312 673Q312 696 328 711T366 727Q389 727 404 712T420 673ZM231 673Q231 651 215 635T177 619Q155 619 140 635T124 673Q124 695 139 711T177 727Q200 727 215 712T231 673Z" />
</font>
</defs>
</svg>
